<svg xmlns="http://www.w3.org/2000/svg" version="1.1" height="600" width="960"><g></g><g transform="translate(480,300)"><text style="font-size: 44px; font-family: Impact; fill: rgb(99, 121, 57);" transform="translate(-230,140)rotate(-90)scale(1,1)" text-anchor="middle">layout</text><text style="font-size: 100px; font-family: Impact; fill: rgb(57, 59, 121);" transform="translate(-21,50)rotate(-90)" text-anchor="middle">Javascript</text><text style="font-size: 44px; font-family: Impact; fill: rgb(206, 219, 156);" transform="translate(132,34)rotate(0)scale(1,1)" text-anchor="middle">DOM</text><text style="font-size: 79px; font-family: Impact; fill: rgb(214, 97, 107);" transform="translate(-17,115)rotate(90)scale(1,1)" text-anchor="middle">canvas</text><text style="font-size: 10px; font-family: Impact; fill: rgb(82, 84, 163);" transform="translate(-225,23)rotate(-90)scale(1,1)" text-anchor="middle"></text><text style="font-size: 44px; font-family: Impact; fill: rgb(107, 110, 207);" transform="translate(-150,51)rotate(0)scale(1,1)" text-anchor="middle">JQuery</text><text style="font-size: 44px; font-family: Impact; fill: rgb(156, 158, 222);" transform="translate(-229,-5)rotate(-90)" text-anchor="middle">Angular</text><text style="font-size: 44px; font-family: Impact; fill: rgb(99, 121, 57);" transform="translate(-268,38)rotate(-90)" text-anchor="middle">function</text><text style="font-size: 44px; font-family: Impact; fill: rgb(140, 162, 82);" transform="translate(67,-99)rotate(0)" text-anchor="middle">dynamic</text><text style="font-size: 44px; font-family: Impact; fill: rgb(181, 207, 107);" transform="translate(-109,-40)rotate(-90)" text-anchor="middle">typing</text><text style="font-size: 44px; font-family: Impact; fill: rgb(206, 219, 156);" transform="translate(140,71)rotate(0)" text-anchor="middle">var</text><text style="font-size: 44px; font-family: Impact; fill: rgb(140, 109, 49);" transform="translate(-131,112)rotate(0)scale(1,1)" text-anchor="middle">JSON</text><text style="font-size: 44px; font-family: Impact; fill: rgb(189, 158, 57);" transform="translate(87,33)rotate(-90)" text-anchor="middle">asynchronous</text><text style="font-size: 44px; font-family: Impact; fill: rgb(231, 186, 82);" transform="translate(-307,49)rotate(-90)scale(1,1)" text-anchor="middle">Manipulation</text><text style="font-size: 44px; font-family: Impact; fill: rgb(231, 203, 148);" transform="translate(-190,102)rotate(-90)scale(1,1)" text-anchor="middle">HTML</text><text style="font-size: 44px; font-family: Impact; fill: rgb(132, 60, 57);" transform="translate(-109,-131)rotate(-90)" text-anchor="middle">CSS</text><text style="font-size: 44px; font-family: Impact; fill: rgb(173, 73, 74);" transform="translate(-113,158)rotate(-90)scale(1,1)" text-anchor="middle">Style</text><text style="font-size: 44px; font-family: Impact; fill: rgb(214, 97, 107);" transform="translate(-222,-30)rotate(90)scale(1,1)" text-anchor="middle">click</text><text style="font-size: 44px; font-family: Impact; fill: rgb(231, 150, 156);" transform="translate(234,-111)rotate(-90)" text-anchor="middle">change</text><text style="font-size: 44px; font-family: Impact; fill: rgb(123, 65, 115);" transform="translate(-191,-130)rotate(90)scale(1,1)" text-anchor="middle">script</text><text style="font-size: 44px; font-family: Impact; fill: rgb(206, 109, 189);" transform="translate(-291,-78)rotate(0)" text-anchor="middle">libraries</text><text style="font-size: 44px; font-family: Impact; fill: rgb(222, 158, 214);" transform="translate(-247,-116)rotate(0)scale(1,1)" text-anchor="middle">w2ui</text><text style="font-size: 44px; font-family: Impact; fill: rgb(57, 59, 121);" transform="translate(98,197)rotate(0)scale(1,1)" text-anchor="middle">action</text><text style="font-size: 44px; font-family: Impact; fill: rgb(82, 84, 163);" transform="translate(148,150)rotate(0)scale(1,1)" text-anchor="middle">modal</text><text style="font-size: 44px; font-family: Impact; fill: rgb(107, 110, 207);" transform="translate(177,-77)rotate(-90)" text-anchor="middle">window</text><text style="font-size: 44px; font-family: Impact; fill: rgb(156, 158, 222);" transform="translate(47,-44)rotate(-90)scale(1,1)" text-anchor="middle">Web</text><text style="font-size: 44px; font-family: Impact; fill: rgb(140, 162, 82);" transform="translate(-90,-166)rotate(0)" text-anchor="middle">AJAX</text><text style="font-size: 44px; font-family: Impact; fill: rgb(181, 207, 107);" transform="translate(17,-184)rotate(-90)" text-anchor="middle">Page</text><text style="font-size: 44px; font-family: Impact; fill: rgb(99, 121, 57);" transform="translate(238,170)rotate(-90)scale(1,1)" text-anchor="middle">Design</text><text style="font-size: 44px; font-family: Impact; fill: rgb(231, 203, 148);" transform="translate(-200,-206)rotate(-90)scale(1,1)" text-anchor="middle">rules</text><text style="font-size: 44px; font-family: Impact; fill: rgb(132, 60, 57);" transform="translate(-148,-27)rotate(-90)scale(1,1)" text-anchor="middle">link</text><text style="font-size: 44px; font-family: Impact; fill: rgb(214, 97, 107);" transform="translate(138,-45)rotate(-90)" text-anchor="middle">grid</text><text style="font-size: 44px; font-family: Impact; fill: rgb(165, 81, 148);" transform="translate(198,105)rotate(0)" text-anchor="middle">mustachejs</text><text style="font-size: 44px; font-family: Impact; fill: rgb(231, 150, 156);" transform="translate(311,-51)rotate(-90)" text-anchor="middle">usability</text><text style="font-size: 44px; font-family: Impact; fill: rgb(206, 109, 189);" transform="translate(-182,161)rotate(90)scale(1,1)" text-anchor="middle">form</text><text style="font-size: 44px; font-family: Impact; fill: rgb(206, 219, 156);" transform="translate(97,-200)rotate(-90)" text-anchor="middle">ReactJS</text><text style="font-size: 44px; font-family: Impact; fill: rgb(140, 109, 49);" transform="translate(273,-60)rotate(-90)scale(1,1)" text-anchor="middle">NodeJS</text><text style="font-size: 44px; font-family: Impact; fill: rgb(189, 158, 57);" transform="translate(181,16)rotate(90)scale(1,1)" text-anchor="middle">focus</text><text style="font-size: 44px; font-family: Impact; fill: rgb(222, 158, 214);" transform="translate(292,64)rotate(0)scale(1,1)" text-anchor="middle">network</text><text style="font-size: 44px; font-family: Impact; fill: rgb(231, 186, 82);" transform="translate(-378,42)rotate(90)scale(1,1)" text-anchor="middle">hover</text><text style="font-size: 44px; font-family: Impact; fill: rgb(57, 59, 121);" transform="translate(371,108)rotate(90)scale(1,1)" text-anchor="middle">localStorage</text><text style="font-size: 44px; font-family: Impact; fill: rgb(173, 73, 74);" transform="translate(189,207)rotate(-90)scale(1,1)" text-anchor="middle">image</text><text style="font-size: 44px; font-family: Impact; fill: rgb(123, 65, 115);" transform="translate(-382,31)rotate(-90)scale(1,1)" text-anchor="middle">content</text><text style="font-size: 44px; font-family: Impact; fill: rgb(165, 81, 148);" transform="translate(24,-184)rotate(90)" text-anchor="middle">www</text></g></svg>