<svg xmlns="http://www.w3.org/2000/svg" version="1.1" height="600" width="960"><g></g><g transform="translate(480,300)scale(1.0062893629074097,1.0062893629074097)"><text style="font-size: 55px; font-family: Impact; fill: rgb(231, 203, 148);" transform="translate(-15,134)rotate(0)scale(1,1)" text-anchor="middle">Oracle</text><text style="font-size: 55px; font-family: Impact; fill: rgb(132, 60, 57);" transform="translate(99,138)rotate(45)scale(0.999999982885729,0.999999982885729)" text-anchor="middle">PostgreSQL</text><text style="font-size: 55px; font-family: Impact; fill: rgb(173, 73, 74);" transform="translate(183,56)rotate(-45)scale(0.999999982885729,0.999999982885729)" text-anchor="middle">H2</text><text style="font-size: 55px; font-family: Impact; fill: rgb(214, 97, 107);" transform="translate(-106,-76)rotate(0)scale(1,1)" text-anchor="middle">HSQL</text><text style="font-size: 55px; font-family: Impact; fill: rgb(231, 150, 156);" transform="translate(-92,94)rotate(-45)scale(0.999999982885729,0.999999982885729)" text-anchor="middle">MySQL</text><text style="font-size: 55px; font-family: Impact; fill: rgb(123, 65, 115);" transform="translate(-186,159)rotate(-90)scale(1,1)" text-anchor="middle">MariaDB</text><text style="font-size: 55px; font-family: Impact; fill: rgb(165, 81, 148);" transform="translate(235,114)rotate(0)" text-anchor="middle">Informix</text><text style="font-size: 55px; font-family: Impact; fill: rgb(206, 109, 189);" transform="translate(102,-91)rotate(45)scale(0.999999982885729,0.999999982885729)" text-anchor="middle">SQL</text><text style="font-size: 55px; font-family: Impact; fill: rgb(222, 158, 214);" transform="translate(-302,13)rotate(90)" text-anchor="middle">PLSQL</text><text style="font-size: 55px; font-family: Impact; fill: rgb(57, 59, 121);" transform="translate(-21,-108)rotate(45)scale(0.999999982885729,0.999999982885729)" text-anchor="middle">NoSQL</text><text style="font-size: 55px; font-family: Impact; fill: rgb(82, 84, 163);" transform="translate(161,-116)rotate(45)scale(0.999999982885729,0.999999982885729)" text-anchor="middle">Persistence</text><text style="font-size: 55px; font-family: Impact; fill: rgb(107, 110, 207);" transform="translate(248,-166)rotate(-45)scale(0.999999982885729,0.999999982885729)" text-anchor="middle">ACID</text><text style="font-size: 55px; font-family: Impact; fill: rgb(156, 158, 222);" transform="translate(-6,-246)rotate(0)scale(1,1)" text-anchor="middle">Normalization</text><text style="font-size: 100px; font-family: Impact; fill: rgb(99, 121, 57);" transform="translate(-175,-111)rotate(-90)scale(1,1)" text-anchor="middle">Backups</text><text style="font-size: 100px; font-family: Impact; fill: rgb(140, 162, 82);" transform="translate(25,10)" text-anchor="middle">Migration</text><text style="font-size: 55px; font-family: Impact; fill: rgb(206, 219, 156);" transform="translate(266,41)rotate(-45)scale(0.999999982885729,0.999999982885729)" text-anchor="middle">Data</text><text style="font-size: 55px; font-family: Impact; fill: rgb(181, 207, 107);" transform="translate(370,51)rotate(-90)" text-anchor="middle">Connectivity</text><text style="font-size: 55px; font-family: Impact; fill: rgb(206, 219, 156);" transform="translate(-128,-182)rotate(-90)" text-anchor="middle">Store</text><text style="font-size: 55px; font-family: Impact; fill: rgb(140, 109, 49);" transform="translate(-333,-42)rotate(-45)scale(0.999999982885729,0.999999982885729)" text-anchor="middle">Procedure</text><text style="font-size: 55px; font-family: Impact; fill: rgb(189, 158, 57);" transform="translate(261,-230)rotate(0)" text-anchor="middle">Function</text><text style="font-size: 55px; font-family: Impact; fill: rgb(231, 186, 82);" transform="translate(-287,175)rotate(-45)scale(0.999999982885729,0.999999982885729)" text-anchor="middle">Trigger</text><text style="font-size: 10px; font-family: Impact; fill: rgb(82, 84, 163);" transform="translate(50,-135)rotate(-45)scale(0.999999982885729,0.999999982885729)" text-anchor="middle"></text><text style="font-size: 55px; font-family: Impact; fill: rgb(231, 203, 148);" transform="translate(-387,-188)rotate(90)" text-anchor="middle">DataBase</text><text style="font-size: 55px; font-family: Impact; fill: rgb(132, 60, 57);" transform="translate(27,184)rotate(0)scale(1,1)" text-anchor="middle">remote</text><text style="font-size: 55px; font-family: Impact; fill: rgb(173, 73, 74);" transform="translate(-311,33)rotate(-90)scale(1,1)" text-anchor="middle">call</text><text style="font-size: 55px; font-family: Impact; fill: rgb(214, 97, 107);" transform="translate(79,-134)rotate(-45)scale(0.999999982885729,0.999999982885729)" text-anchor="middle">link</text><text style="font-size: 55px; font-family: Impact; fill: rgb(231, 150, 156);" transform="translate(236,186)rotate(90)scale(1,1)" text-anchor="middle">Install</text></g></svg>