<svg xmlns="http://www.w3.org/2000/svg" version="1.1" height="600" width="960"><g></g><g transform="translate(480,300)scale(1,1)"><text style="font-size: 10px; font-family: Impact; fill: rgb(165, 81, 148);" transform="translate(139,-40)rotate(69.99999934060686)scale(0.9999999995881268,0.9999999995881268)" text-anchor="middle">Mask</text><text style="font-size: 66px; font-family: Impact; fill: rgb(156, 158, 222);" transform="translate(81,54)rotate(90)scale(1,1)" text-anchor="middle">Structured</text><text style="font-size: 66px; font-family: Impact; fill: rgb(99, 121, 57);" transform="translate(-268,67)rotate(-90)scale(1,1)" text-anchor="middle">RJ45</text><text style="font-size: 66px; font-family: Impact; fill: rgb(140, 162, 82);" transform="translate(-265,-119)rotate(69.99999934060686)scale(0.9999999995881268,0.9999999995881268)" text-anchor="middle">Telnet</text><text style="font-size: 66px; font-family: Impact; fill: rgb(181, 207, 107);" transform="translate(-39,148)rotate(-30.000000445292045)scale(0.9999999865388264,0.9999999865388264)" text-anchor="middle">Security</text><text style="font-size: 66px; font-family: Impact; fill: rgb(206, 219, 156);" transform="translate(-25,44)rotate(-10.000000283105564)skewX(1.5902773769569864e-15)scale(0.9999999772208115,0.9999999772208115)" text-anchor="middle">Fortinet</text><text style="font-size: 66px; font-family: Impact; fill: rgb(140, 109, 49);" transform="translate(142,-74)rotate(69.99999934060686)scale(0.9999999995881268,0.9999999995881268)" text-anchor="middle">VPN</text><text style="font-size: 66px; font-family: Impact; fill: rgb(189, 158, 57);" transform="translate(255,-74)rotate(-90)skewX(0)scale(1,1)" text-anchor="middle">OPenVPN</text><text style="font-size: 66px; font-family: Impact; fill: rgb(231, 186, 82);" transform="translate(-205,151)rotate(-49.99999868188683)scale(1.0000000124717339,1.0000000124717339)" text-anchor="middle">Ethernet</text><text style="font-size: 66px; font-family: Impact; fill: rgb(231, 203, 148);" transform="translate(160,140)rotate(49.99999868188683)scale(1.0000000124717339,1.0000000124717339)" text-anchor="middle">WIFI</text><text style="font-size: 66px; font-family: Impact; fill: rgb(173, 73, 74);" transform="translate(19,-19)rotate(-10.000000283105564)skewX(1.5902773769569864e-15)scale(0.9999999772208115,0.9999999772208115)" text-anchor="middle">OSI</text><text style="font-size: 10px; font-family: Impact; fill: rgb(214, 97, 107);" transform="translate(-81,-14)rotate(49.99999868188683)skewX(0)scale(1.0000000124717339,1.0000000124717339)" text-anchor="middle">Model</text><text style="font-size: 66px; font-family: Impact; fill: rgb(123, 65, 115);" transform="translate(269,-132)rotate(49.99999868188684)scale(1.0000000124717339,1.0000000124717339)" text-anchor="middle">IP</text><text style="font-size: 66px; font-family: Impact; fill: rgb(222, 158, 214);" transform="translate(-311,-79)rotate(69.99999934060686)skewX(0)scale(0.9999999995881268,0.9999999995881268)" text-anchor="middle">Ping</text><text style="font-size: 66px; font-family: Impact; fill: rgb(57, 59, 121);" transform="translate(352,-39)rotate(10.00000028310556)skewX(-1.5902773769569864e-15)scale(0.9999999772208115,0.9999999772208115)" text-anchor="middle">Router</text><text style="font-size: 66px; font-family: Impact; fill: rgb(82, 84, 163);" transform="translate(239,-198)rotate(10.000000283105564)skewX(-1.5902773769569864e-15)scale(0.9999999772208115,0.9999999772208115)" text-anchor="middle">Cisco</text><text style="font-size: 66px; font-family: Impact; fill: rgb(206, 219, 156);" transform="translate(358,-125)rotate(49.99999868188683)scale(1.0000000124717339,1.0000000124717339)" text-anchor="middle">LAN</text><text style="font-size: 10px; font-family: Impact; fill: rgb(231, 203, 148);" transform="translate(268,-104)rotate(-69.99999934060686)skewX(0)scale(0.9999999995881268,0.9999999995881268)" text-anchor="middle">Bit</text><text style="font-size: 10px; font-family: Impact; fill: rgb(82, 84, 163);" transform="translate(145,-82)rotate(69.99999934060686)scale(0.9999999995881268,0.9999999995881268)" text-anchor="middle"></text><text style="font-size: 100px; font-family: Impact; fill: rgb(107, 110, 207);" transform="translate(-38,-62)rotate(-30.000000445292045)scale(0.9999999865388264,0.9999999865388264)" text-anchor="middle">Networking</text><text style="font-size: 66px; font-family: Impact; fill: rgb(132, 60, 57);" transform="translate(-33,-162)rotate(-30.000000445292045)skewX(0)scale(0.9999999865388264,0.9999999865388264)" text-anchor="middle">Intermitence</text><text style="font-size: 66px; font-family: Impact; fill: rgb(231, 150, 156);" transform="translate(264,88)rotate(90)skewX(0)scale(1,1)" text-anchor="middle">Topology</text><text style="font-size: 66px; font-family: Impact; fill: rgb(107, 110, 207);" transform="translate(340,120)rotate(69.99999934060686)scale(0.9999999995881268,0.9999999995881268)" text-anchor="middle">Avaya</text><text style="font-size: 10px; font-family: Impact; fill: rgb(231, 186, 82);" transform="translate(151,-66)rotate(-49.99999868188682)scale(1.0000000124717339,1.0000000124717339)" text-anchor="middle">Byte</text><text style="font-size: 10px; font-family: Impact; fill: rgb(222, 158, 214);" transform="translate(54,42)rotate(49.99999868188683)scale(1.0000000124717339,1.0000000124717339)" text-anchor="middle">Net</text><text style="font-size: 10px; font-family: Impact; fill: rgb(140, 162, 82);" transform="translate(62,112)rotate(-30.000000445292045)scale(0.9999999865388264,0.9999999865388264)" text-anchor="middle">Ring</text><text style="font-size: 66px; font-family: Impact; fill: rgb(140, 109, 49);" transform="translate(-354,-38)rotate(-49.99999868188683)skewX(0)scale(1.0000000124717339,1.0000000124717339)" text-anchor="middle">WAN</text><text style="font-size: 10px; font-family: Impact; fill: rgb(156, 158, 222);" transform="translate(-261,49)rotate(69.99999934060686)skewX(0)scale(0.9999999995881268,0.9999999995881268)" text-anchor="middle">Token</text><text style="font-size: 66px; font-family: Impact; fill: rgb(206, 109, 189);" transform="translate(-225,-216)rotate(10.000000283105564)skewX(-1.5902773769569864e-15)scale(0.9999999772208115,0.9999999772208115)" text-anchor="middle">Broadcast</text><text style="font-size: 10px; font-family: Impact; fill: rgb(140, 109, 49);" transform="translate(36,-82)rotate(-10.000000283105564)skewX(1.5902773769569864e-15)scale(0.9999999772208115,0.9999999772208115)" text-anchor="middle">Reliability</text><text style="font-size: 10px; font-family: Impact; fill: rgb(189, 158, 57);" transform="translate(216,57)rotate(-30.000000445292045)skewX(0)scale(0.9999999865388264,0.9999999865388264)" text-anchor="middle">Noise</text><text style="font-size: 66px; font-family: Impact; fill: rgb(181, 207, 107);" transform="translate(-329,131)rotate(-90)" text-anchor="middle">Intranet</text><text style="font-size: 66px; font-family: Impact; fill: rgb(231, 203, 148);" transform="translate(373,51)rotate(70)" text-anchor="middle">IPV4</text><text style="font-size: 66px; font-family: Impact; fill: rgb(132, 60, 57);" transform="translate(11,192)rotate(70)" text-anchor="middle">IPV6</text><text style="font-size: 66px; font-family: Impact; fill: rgb(99, 121, 57);" transform="translate(352,-244)rotate(-10)" text-anchor="middle">Fibre</text></g></svg>