<svg xmlns="http://www.w3.org/2000/svg" version="1.1" height="600" width="960"><g></g><g transform="translate(480,300)scale(1.0033445358276367,1.0033445358276367)"><text style="font-size: 10px; font-family: Impact; fill: rgb(99, 121, 57);" transform="translate(-196,100)rotate(0)scale(1,1)" text-anchor="middle">layout</text><text style="font-size: 66px; font-family: Impact; fill: rgb(140, 162, 82);" transform="translate(-301,-156)" text-anchor="middle">algorithm</text><text style="font-size: 66px; font-family: Impact; fill: rgb(231, 186, 82);" transform="translate(105,121)rotate(-45)scale(0.999999982885729,0.999999982885729)" text-anchor="middle">pixels</text><text style="font-size: 10px; font-family: Impact; fill: rgb(222, 158, 214);" transform="translate(33,-98)rotate(-45)scale(0.999999982885729,0.999999982885729)" text-anchor="middle">think</text><text style="font-size: 100px; font-family: Impact; fill: rgb(107, 110, 207);" transform="translate(221,55)rotate(-90)scale(1,1)" text-anchor="middle">Education</text><text style="font-size: 66px; font-family: Impact; fill: rgb(156, 158, 222);" transform="translate(36,-206)rotate(-90)scale(1,1)" text-anchor="middle">Design</text><text style="font-size: 66px; font-family: Impact; fill: rgb(99, 121, 57);" transform="translate(-67,-54)rotate(90)" text-anchor="middle">Patterns</text><text style="font-size: 66px; font-family: Impact; fill: rgb(140, 162, 82);" transform="translate(-85,-153)rotate(-45)scale(0.999999982885729,0.999999982885729)" text-anchor="middle">basics</text><text style="font-size: 66px; font-family: Impact; fill: rgb(181, 207, 107);" transform="translate(-185,-43)rotate(-90)" text-anchor="middle">practice</text><text style="font-size: 66px; font-family: Impact; fill: rgb(231, 186, 82);" transform="translate(28,116)rotate(-45)scale(0.999999982885729,0.999999982885729)" text-anchor="middle">course</text><text style="font-size: 66px; font-family: Impact; fill: rgb(214, 97, 107);" transform="translate(-276,-70)rotate(-45)scale(0.999999982885729,0.999999982885729)" text-anchor="middle">Input</text><text style="font-size: 66px; font-family: Impact; fill: rgb(206, 109, 189);" transform="translate(-10,-22)rotate(90)" text-anchor="middle">Geek</text><text style="font-size: 10px; font-family: Impact; fill: rgb(82, 84, 163);" transform="translate(125,-126)rotate(90)scale(1,1)" text-anchor="middle"></text><text style="font-size: 10px; font-family: Impact; fill: rgb(132, 60, 57);" transform="translate(-177,-66)rotate(90)" text-anchor="middle">implementation</text><text style="font-size: 66px; font-family: Impact; fill: rgb(140, 109, 49);" transform="translate(-76,21)rotate(-90)" text-anchor="middle">principles</text><text style="font-size: 66px; font-family: Impact; fill: rgb(206, 219, 156);" transform="translate(83,-88)rotate(90)scale(1,1)" text-anchor="middle">Concepts</text><text style="font-size: 10px; font-family: Impact; fill: rgb(57, 59, 121);" transform="translate(-79,-138)rotate(90)" text-anchor="middle">Output</text><text style="font-size: 10px; font-family: Impact; fill: rgb(231, 150, 156);" transform="translate(47,-26)rotate(-45)scale(0.999999982885729,0.999999982885729)" text-anchor="middle">devices</text><text style="font-size: 66px; font-family: Impact; fill: rgb(132, 60, 57);" transform="translate(336,-188)rotate(-90)scale(1,1)" text-anchor="middle">Medium</text><text style="font-size: 66px; font-family: Impact; fill: rgb(189, 158, 57);" transform="translate(-277,147)rotate(0)scale(1,1)" text-anchor="middle">operations</text><text style="font-size: 66px; font-family: Impact; fill: rgb(231, 203, 148);" transform="translate(280,-12)rotate(-90)" text-anchor="middle">advanced</text><text style="font-size: 66px; font-family: Impact; fill: rgb(123, 65, 115);" transform="translate(331,39)rotate(-90)" text-anchor="middle">Answers</text><text style="font-size: 10px; font-family: Impact; fill: rgb(173, 73, 74);" transform="translate(52,-162)rotate(45)scale(0.999999982885729,0.999999982885729)" text-anchor="middle">Complexity</text><text style="font-size: 10px; font-family: Impact; fill: rgb(165, 81, 148);" transform="translate(-51,92)rotate(-45)scale(0.999999982885729,0.999999982885729)" text-anchor="middle">Informatic</text></g></svg>